<svg width="22" height="22" viewBox="0 0 22 22" fill="none" xmlns="http://www.w3.org/2000/svg">
<path fill-rule="evenodd" clip-rule="evenodd" d="M13.7571 1.62146C14.6353 0.743329 15.8263 0.25 17.0681 0.25C18.31 0.25 19.501 0.743329 20.3791 1.62146C21.2573 2.49959 21.7506 3.6906 21.7506 4.93246C21.7506 6.17433 21.2573 7.36533 20.3791 8.24346L10.8931 17.7295C10.3511 18.2715 10.0331 18.5895 9.67714 18.8665C9.25847 19.1945 8.80847 19.4728 8.32714 19.7015C7.92114 19.8945 7.49314 20.0375 6.76714 20.2795L3.43514 21.3895L2.63314 21.6575C2.31417 21.7639 1.97184 21.7795 1.64454 21.7023C1.31724 21.6251 1.01792 21.4582 0.780137 21.2205C0.542354 20.9827 0.375514 20.6834 0.298327 20.3561C0.221139 20.0288 0.236657 19.6864 0.343139 19.3675L1.72114 15.2345C1.96314 14.5075 2.10614 14.0795 2.29914 13.6725C2.52847 13.1925 2.80681 12.7425 3.13414 12.3225C3.41014 11.9685 3.72914 11.6495 4.27114 11.1075L13.7571 1.62146ZM3.40014 19.8215L6.24114 18.8735C7.03214 18.6095 7.36814 18.4965 7.68114 18.3475C8.06247 18.1648 8.42014 17.9438 8.75414 17.6845C9.02714 17.4705 9.27914 17.2215 9.86914 16.6315L17.4391 9.06146C16.4012 8.69368 15.4591 8.09771 14.6821 7.31746C13.9026 6.54029 13.3073 5.59816 12.9401 4.56046L5.37014 12.1305C4.78014 12.7195 4.53014 12.9705 4.31714 13.2445C4.05714 13.5778 3.83614 13.9355 3.65414 14.3175C3.50514 14.6305 3.39214 14.9665 3.12814 15.7575L2.18014 18.6005L3.40014 19.8215ZM14.1551 3.34346C14.1901 3.51846 14.2471 3.75646 14.3441 4.03346C14.6367 4.87051 15.1154 5.63025 15.7441 6.25546C16.3691 6.8841 17.1284 7.36278 17.9651 7.65546C18.2431 7.75246 18.4811 7.80946 18.6561 7.84446L19.3181 7.18246C19.9114 6.585 20.2437 5.77676 20.2423 4.93477C20.2408 4.09278 19.9057 3.2857 19.3103 2.69032C18.7149 2.09494 17.9078 1.75981 17.0658 1.75834C16.2238 1.75687 15.4156 2.08917 14.8181 2.68246L14.1551 3.34346Z" fill="black"/>
</svg>
